<svg
  xmlns="http://www.w3.org/2000/svg"
  viewBox="0 0 96 96"
  role="img"
  aria-labelledby="title desc"
>
  <title id="title">Belt dog logo</title>
  <desc id="desc">A friendly dog head with a collar.</desc>
  <defs>
    <linearGradient
      id="fur"
      x1="18"
      x2="78"
      y1="10"
      y2="84"
      gradientUnits="userSpaceOnUse"
    >
      <stop offset="0" stop-color="#f6c272" />
      <stop offset="1" stop-color="#d9823d" />
    </linearGradient>
    <linearGradient
      id="ear"
      x1="9"
      x2="34"
      y1="19"
      y2="61"
      gradientUnits="userSpaceOnUse"
    >
      <stop offset="0" stop-color="#6f432d" />
      <stop offset="1" stop-color="#9a5b35" />
    </linearGradient>
    <filter id="softShadow" x="-20%" y="-20%" width="140%" height="145%">
      <feDropShadow
        dx="0"
        dy="3"
        stdDeviation="3"
        flood-color="#1f2937"
        flood-opacity="0.16"
      />
    </filter>
  </defs>

  <path
    fill="#eef3f7"
    d="M48 92c24.3 0 44-19.7 44-44S72.3 4 48 4 4 23.7 4 48s19.7 44 44 44Z"
  />

  <g filter="url(#softShadow)">
    <path
      fill="url(#ear)"
      d="M30.2 26.6c-8.1-8.8-19.1-9.1-21.3-6.7-2.8 3 1.8 17.7 7.9 28.2 4.1 7 11.3 12.4 17.1 9.4 6.9-3.6 2.8-23.8-3.7-30.9Z"
    />
    <path
      fill="#6f432d"
      d="M65.8 26.6c8.1-8.8 19.1-9.1 21.3-6.7 2.8 3-1.8 17.7-7.9 28.2-4.1 7-11.3 12.4-17.1 9.4-6.9-3.6-2.8-23.8 3.7-30.9Z"
    />
    <path
      fill="url(#fur)"
      d="M24 44.6c0-19 9.4-31.5 24-31.5s24 12.5 24 31.5c0 7.8-1.9 14.4-5.3 19.2 3.2 4.4 5.5 10 5.5 16.2H23.8c0-6.2 2.3-11.8 5.5-16.2C25.9 59 24 52.4 24 44.6Z"
    />
    <path
      fill="#f8dfb7"
      d="M35.1 58.1c1.7-5.5 6.6-9.3 12.9-9.3s11.2 3.8 12.9 9.3c2.1 6.8-3.1 13.9-12.9 13.9s-15-7.1-12.9-13.9Z"
    />
    <path
      fill="#fff7df"
      d="M36.4 26.9c4.2-3.6 8.7-5.4 11.6-5.4s7.4 1.8 11.6 5.4c-2.9-9.2-8.6-11.4-11.6-11.4s-8.7 2.2-11.6 11.4Z"
      opacity="0.55"
    />
    <path
      fill="#13324f"
      d="M42.3 56.4c0-2.4 2.6-4.3 5.7-4.3s5.7 1.9 5.7 4.3c0 2.2-2.3 5.2-5.7 5.2s-5.7-3-5.7-5.2Z"
    />
    <path
      stroke="#13324f"
      stroke-linecap="round"
      stroke-width="2.8"
      d="M48 61.1v4.3m0 0c-2.2 3.2-7.7 2.7-9.7-.8m9.7.8c2.2 3.2 7.7 2.7 9.7-.8"
    />
    <path
      fill="#13324f"
      d="M37.8 42.5a4.2 4.2 0 1 0 0-8.4 4.2 4.2 0 0 0 0 8.4Zm20.4 0a4.2 4.2 0 1 0 0-8.4 4.2 4.2 0 0 0 0 8.4Z"
    />
    <path
      fill="#fff"
      d="M36.7 35.7a1.2 1.2 0 1 0 0-2.4 1.2 1.2 0 0 0 0 2.4Zm20.4 0a1.2 1.2 0 1 0 0-2.4 1.2 1.2 0 0 0 0 2.4Z"
    />
    <path
      fill="#1565c0"
      d="M26.5 73.3c4.8 3.5 12 5.7 21.5 5.7s16.7-2.2 21.5-5.7c1.3 2.2 2.2 4.4 2.6 6.7H23.9c.4-2.3 1.3-4.5 2.6-6.7Z"
    />
    <path fill="#f7d154" d="M52.5 77.2a4.5 4.5 0 1 1-9 0 4.5 4.5 0 0 1 9 0Z" />
    <path
      fill="#13324f"
      d="M49.4 77.2a1.4 1.4 0 1 1-2.8 0 1.4 1.4 0 0 1 2.8 0Z"
    />
  </g>
</svg>
