<svg
  xmlns="http://www.w3.org/2000/svg"
  viewBox="0 0 96 96"
  role="img"
  aria-labelledby="title desc"
>
  <title id="title">Belt dog logo</title>
  <desc id="desc">
    A playful black-and-white dog head with one white ear, tongue out, and a
    bold collar.
  </desc>
  <defs>
    <filter id="softShadow" x="-18%" y="-18%" width="136%" height="142%">
      <feDropShadow
        dx="0"
        dy="3"
        stdDeviation="3"
        flood-color="#111827"
        flood-opacity="0.18"
      />
    </filter>
    <linearGradient
      id="collar"
      x1="20"
      x2="76"
      y1="68"
      y2="84"
      gradientUnits="userSpaceOnUse"
    >
      <stop offset="0" stop-color="#0f56a8" />
      <stop offset="1" stop-color="#1d7ed6" />
    </linearGradient>
  </defs>

  <path
    fill="#eef3f7"
    d="M48 92c24.3 0 44-19.7 44-44S72.3 4 48 4 4 23.7 4 48s19.7 44 44 44Z"
  />

  <g filter="url(#softShadow)">
    <path
      fill="#f8fbff"
      stroke="#111827"
      stroke-linejoin="round"
      stroke-width="2.5"
      d="M31.7 27.8C24.2 15.9 12.9 13.6 9.4 16.1c-4 2.8-1.8 18.2 3.8 29 4.6 8.9 13.7 13.2 19.2 8.3 5.8-5.2 4.7-17 .5-24.2l-1.2-1.4Z"
    />
    <path
      fill="#151923"
      stroke="#111827"
      stroke-linejoin="round"
      stroke-width="2.5"
      d="M64.3 27.8c7.5-11.9 18.8-14.2 22.3-11.7 4 2.8 1.8 18.2-3.8 29-4.6 8.9-13.7 13.2-19.2 8.3-5.8-5.2-4.7-17-.5-24.2l1.2-1.4Z"
    />

    <path
      fill="#f8fbff"
      stroke="#111827"
      stroke-linejoin="round"
      stroke-width="2.5"
      d="M31 64.5c-4.8-5-7.4-12.6-7.4-22.2C23.6 24.1 33.1 12 48 12s24.4 12.1 24.4 30.3c0 9.6-2.6 17.2-7.4 22.2 4.2 3.9 7.3 9.8 8.2 17.3H22.8c.9-7.5 4-13.4 8.2-17.3Z"
    />
    <path
      fill="#151923"
      d="M30.7 34.2c2.6-11.2 9.6-18.1 19.1-18.1 8.8 0 16.2 6.6 19.2 17.1-5.2-4.2-11.7-5.8-19.2-4.4-8.4 1.6-14.4 3.3-19.1 5.4Z"
      opacity="0.96"
    />
    <path
      fill="#f8fbff"
      d="M36.7 22.6c2.4-4.7 6.2-7.6 11.3-7.6 4.9 0 8.7 2.8 11.1 7.4-6.1-2.6-15.1-2.5-22.4.2Z"
    />
    <path
      fill="#151923"
      d="M44.3 6.8c1.5 2.9 1.1 6.5-1.1 9.4 4.3-3.1 8.4-6.2 9.2-11.5 2.2 4 1.7 8.3-1.2 12.2 3.9-2.2 7.7-4.6 10.6-8.2 0 7.9-4.7 15.9-13.8 17-9.5 1.1-16-3.9-15.7-10.1 3.2 2.6 7.5 2.3 12-8.8Z"
    />
    <path
      fill="#151923"
      d="M61.6 35.1c5.1 3.5 8.1 9.1 8.1 16 0 4.5-1.2 8.6-3.6 12-4.3 1.2-9.7-.3-13.2-3.7 5.1-6.6 6.2-15.3 8.7-24.3Z"
      opacity="0.96"
    />

    <path
      fill="#f8fbff"
      stroke="#111827"
      stroke-linejoin="round"
      stroke-width="2"
      d="M34.4 54.6c1.8-5.6 7-9.4 13.6-9.4s11.8 3.8 13.6 9.4c2.3 7.2-3.2 14.8-13.6 14.8s-15.9-7.6-13.6-14.8Z"
    />
    <path
      fill="#111827"
      d="M42.5 53.6c0-2.2 2.5-4 5.5-4s5.5 1.8 5.5 4c0 2.1-2.1 4.8-5.5 4.8s-5.5-2.7-5.5-4.8Z"
    />
    <path
      fill="#f27c91"
      stroke="#111827"
      stroke-linejoin="round"
      stroke-width="2"
      d="M53.4 61.9c4.9-.4 8.7 2.3 8.4 6.5-.2 3.9-3.1 6.7-6.5 6.2-3.5-.5-5.2-4-3.2-7.6.8-1.5 1.1-3.2 1.3-5.1Z"
    />
    <path
      stroke="#c74f68"
      stroke-linecap="round"
      stroke-width="1.7"
      d="M57.5 65.4c.8 2 .4 4.3-1.1 6"
    />
    <path
      stroke="#111827"
      stroke-linecap="round"
      stroke-width="2.5"
      d="M48 58v4m0 0c-2.2 2.6-6.8 2.4-8.8-.2m8.8.2c1.3 1.5 3.6 2.1 5.6 1.5"
    />

    <path
      fill="#111827"
      d="M36.7 43.1c2.1-.5 4.1.8 4.8 3.1-1.3 1.5-4.5 1.7-6.2.4-.7-1.4-.1-3.1 1.4-3.5Zm22.2 0c-2.1-.5-4.1.8-4.8 3.1 1.3 1.5 4.5 1.7 6.2.4.7-1.4.1-3.1-1.4-3.5Z"
    />
    <path
      stroke="#111827"
      stroke-linecap="round"
      stroke-width="2"
      d="M32.8 38.4c2.8-2 6.4-2.1 9.2-.1m21.2.1c-2.8-2-6.4-2.1-9.2-.1"
    />
    <path
      fill="#fff"
      d="M39.3 44.1a1 1 0 1 1-2 0 1 1 0 0 1 2 0Zm19.4 0a1 1 0 1 1-2 0 1 1 0 0 1 2 0Z"
    />

    <path
      fill="url(#collar)"
      stroke="#0d3f78"
      stroke-linejoin="round"
      stroke-width="2.5"
      d="M22.6 72.2c5.3 5.8 14 8.8 25.4 8.8s20.1-3 25.4-8.8c1.5 2.8 2.6 6 3.1 9.6-6.9 6.5-16.4 10.5-28.5 10.5s-21.6-4-28.5-10.5c.5-3.6 1.6-6.8 3.1-9.6Z"
    />
    <path
      fill="#f7d154"
      stroke="#111827"
      stroke-width="2"
      d="M54.6 78.3a6.6 6.6 0 1 1-13.2 0 6.6 6.6 0 0 1 13.2 0Z"
    />
    <path
      fill="#111827"
      d="M45.3 74.8h3.1c1.8 0 3 .9 3 2.4 0 1-.5 1.7-1.3 2.1.9.3 1.5 1.1 1.5 2.2 0 1.7-1.3 2.7-3.4 2.7h-2.9v-9.4Zm2.8 3.8c.8 0 1.2-.3 1.2-1s-.4-1-1.2-1h-.8v2h.8Zm.2 3.7c.9 0 1.4-.4 1.4-1.1s-.5-1.1-1.4-1.1h-1v2.2h1Z"
    />
  </g>
</svg>
